<?xml version="1.0" encoding="utf-8"?>
<!-- Generator: Adobe Illustrator 25.0.1, SVG Export Plug-In . SVG Version: 6.00 Build 0)  -->
<svg version="1.1" id="Capa_1" xmlns="http://www.w3.org/2000/svg" xmlns:xlink="http://www.w3.org/1999/xlink" x="0px" y="0px"
	 viewBox="0 0 695.6 694.1" style="enable-background:new 0 0 695.6 694.1;" xml:space="preserve">
<style type="text/css">
	.st0{fill:url(#SVGID_1_);}
	.st1{fill:url(#SVGID_2_);}
	.st2{fill:url(#SVGID_3_);}
	.st3{fill:url(#SVGID_4_);}
	.st4{fill:url(#SVGID_5_);}
	.st5{fill:url(#SVGID_6_);}
	.st6{fill:url(#SVGID_7_);}
	.st7{fill:url(#SVGID_8_);}
	.st8{fill:url(#SVGID_9_);}
	.st9{fill:url(#SVGID_10_);}
	.st10{fill:url(#SVGID_11_);}
	.st11{fill:url(#SVGID_12_);}
	.st12{fill:url(#SVGID_13_);}
	.st13{fill:url(#SVGID_14_);}
	.st14{fill:url(#SVGID_15_);}
	.st15{fill:url(#SVGID_16_);}
	.st16{fill:url(#SVGID_17_);}
	.st17{fill:url(#SVGID_18_);}
	.st18{fill:url(#SVGID_19_);}
	.st19{fill:url(#SVGID_20_);}
	.st20{fill:url(#SVGID_21_);}
	.st21{fill:url(#SVGID_22_);}
	.st22{fill:url(#SVGID_23_);}
	.st23{fill:#5C4346;}
	.st24{fill:#A66856;}
	.st25{fill:#8F5040;}
	.st26{fill:#595959;}
	.st27{fill:#735458;}
</style>
<linearGradient id="SVGID_1_" gradientUnits="userSpaceOnUse" x1="347.8" y1="696" x2="347.8" y2="0.4" gradientTransform="matrix(1 0 0 -1 0 696)">
	<stop  offset="0" style="stop-color:#43B3AE"/>
	<stop  offset="1" style="stop-color:#9370DB"/>
</linearGradient>
<path class="st0" d="M595.6,695.6H100c-55.2,0-100-44.8-100-100V100C0,44.8,44.8,0,100,0h495.6c55.2,0,100,44.8,100,100v495.6
	C695.6,650.8,650.8,695.6,595.6,695.6z"/>
<g>
	
		<linearGradient id="SVGID_2_" gradientUnits="userSpaceOnUse" x1="-3224.9985" y1="1577.4624" x2="-2864.2283" y2="1577.4624" gradientTransform="matrix(-0.7098 -0.7098 0.7098 -0.7098 -2750.6768 -727.1112)">
		<stop  offset="0" style="stop-color:#537983"/>
		<stop  offset="0.593" style="stop-color:#554E56"/>
		<stop  offset="1" style="stop-color:#433F43"/>
	</linearGradient>
	<path class="st1" d="M373.4,330.9c6.6,6.6,16.8,8.1,25.1,3.6l3.3-1.8c9.2-5,20.6-3.4,28,4.1c4.7,4.7,7.2,11.3,6.9,18l-0.4,7.8
		c-0.9,17,10.7,32.1,27.4,35.6c5.6,1.2,10.7,3.9,14.7,7.9c11.4,11.4,11.4,29.8,0,41.2l-11.1,11.1c-9.3,9.3-9.3,24.3,0,33.6
		s24.3,9.3,33.6,0c11.1-11.1,20.1-24.2,26.4-38.5l17.4-39.2c14.4-32.5,41.7-57.5,75.3-69l29.1-10c8.5-2.9,16.2-7.7,22.5-14.1
		c29.2-29.2,29.2-76.7,0-105.9l-60.2-60.2c-29.2-29.2-76.7-29.2-105.9,0c-6.3,6.3-11.1,14-14.1,22.5l-10,29.1
		c-11.5,33.6-36.5,60.9-69,75.3l-32.7,14.5C366.2,302.6,362.9,320.4,373.4,330.9z"/>
	
		<linearGradient id="SVGID_3_" gradientUnits="userSpaceOnUse" x1="-3186.6245" y1="1428.7941" x2="-3064.1943" y2="1428.7941" gradientTransform="matrix(-0.7098 -0.7098 0.7098 -0.7098 -2733.562 -792.6532)">
		<stop  offset="0" style="stop-color:#537983"/>
		<stop  offset="0.593" style="stop-color:#554E56"/>
		<stop  offset="1" style="stop-color:#433F43"/>
	</linearGradient>
	<path class="st2" d="M436.4,358.9c6.3-1.4,13-0.1,18.4,3.6l6.6-6.6c3.3-3.3,8.7-3.3,12,0l33.3,33.3c3.3,3.3,3.3,8.7,0,12
		l-20.4,20.4c-1-5.7-3.7-11.1-8.1-15.5c-2-2-4.3-3.7-6.8-5c-2.1-1.1-4.2-2-6.5-2.6c-0.5-0.1-0.9-0.2-1.4-0.3
		c-11.2-2.3-20.2-10-24.6-19.9c-2.1-4.8-3.2-10.2-2.8-15.7L436.4,358.9z"/>
	
		<linearGradient id="SVGID_4_" gradientUnits="userSpaceOnUse" x1="-3223.3914" y1="1542.9406" x2="-2996.6755" y2="1542.9406" gradientTransform="matrix(-0.7098 -0.7098 0.7098 -0.7098 -2733.562 -792.6532)">
		<stop  offset="0" style="stop-color:#537983"/>
		<stop  offset="0.593" style="stop-color:#554E56"/>
		<stop  offset="1" style="stop-color:#433F43"/>
	</linearGradient>
	<path class="st3" d="M505.6,155.1c29.2-29.2,76.7-29.2,105.9,0l28.4,28.4c-29.2-29.2-76.7-29.2-105.9,0c-3.2,3.2-5.9,6.7-8.3,10.4
		c-2.4,3.8-4.3,7.8-5.7,12.1l-10,29.1c-11.5,33.6-36.5,60.9-69,75.3L408.2,325c-4.8,2.1-8.3,5.7-10.4,9.9c-8.1,4.1-18,2.5-24.4-4
		c-10.5-10.5-7.2-28.3,6.4-34.3l32.7-14.5c32.5-14.4,57.5-41.7,69-75.3l10-29.1c1.5-4.2,3.4-8.3,5.7-12.1
		C499.6,161.8,502.4,158.3,505.6,155.1z"/>
	
		<linearGradient id="SVGID_5_" gradientUnits="userSpaceOnUse" x1="-3000.8755" y1="1700.173" x2="-2954.1665" y2="1700.173" gradientTransform="matrix(-0.7098 -0.7098 0.7098 -0.7098 -2750.6768 -727.1112)">
		<stop  offset="0" style="stop-color:#FEF056"/>
		<stop  offset="0.5213" style="stop-color:#FBC56D"/>
		<stop  offset="1" style="stop-color:#C86D36"/>
	</linearGradient>
	<circle class="st4" cx="572.6" cy="182.6" r="17.6"/>
	
		<linearGradient id="SVGID_6_" gradientUnits="userSpaceOnUse" x1="-2972.8755" y1="1658.6825" x2="-2926.2046" y2="1658.6825" gradientTransform="matrix(-0.7098 -0.7098 0.7098 -0.7098 -2750.6768 -727.1112)">
		<stop  offset="0" style="stop-color:#FEF056"/>
		<stop  offset="0.5213" style="stop-color:#FBC56D"/>
		<stop  offset="1" style="stop-color:#C86D36"/>
	</linearGradient>
	<circle class="st5" cx="522.2" cy="191.1" r="17.6"/>
	<g>
		
			<linearGradient id="SVGID_7_" gradientUnits="userSpaceOnUse" x1="-3677.6755" y1="-149.2905" x2="-3554.2986" y2="-149.2905" gradientTransform="matrix(-0.7098 -0.7098 0.7098 -0.7098 -2083.2048 -2220.4377)">
			<stop  offset="0" style="stop-color:#FEF056"/>
			<stop  offset="0.5213" style="stop-color:#FBC56D"/>
			<stop  offset="1" style="stop-color:#C86D36"/>
		</linearGradient>
		<path class="st6" d="M455.7,338.2l33.3,33.3c3.3,3.3,3.3,8.7,0,12L308.8,563.7c-3.3,3.3-8.7,3.3-12,0l-33.3-33.3
			c-3.3-3.3-3.3-8.7,0-12l180.2-180.2C447,334.9,452.4,334.9,455.7,338.2L455.7,338.2z"/>
		
			<linearGradient id="SVGID_8_" gradientUnits="userSpaceOnUse" x1="-3739.6626" y1="-136.0357" x2="-3590.2266" y2="-136.0357" gradientTransform="matrix(-0.7098 -0.7098 0.7098 -0.7098 -2115.3271 -2233.7437)">
			<stop  offset="0" style="stop-color:#FEF056"/>
			<stop  offset="0.5213" style="stop-color:#FBC56D"/>
			<stop  offset="1" style="stop-color:#C86D36"/>
		</linearGradient>
		<path class="st7" d="M263.5,518.4l180.2-180.2c3.3-3.3,8.7-3.3,12,0l18.4,18.4c-3.3-3.3-8.7-3.3-12,0l-158,157.8l20.7,20.7
			c2.2,2.2,3.9,4.8,5,7.6l-21,21c-3.3,3.3-8.7,3.3-12,0l-33.3-33.3C260.2,527.1,260.2,521.7,263.5,518.4L263.5,518.4z"/>
	</g>
	<g>
		<g>
			
				<linearGradient id="SVGID_9_" gradientUnits="userSpaceOnUse" x1="-3705.772" y1="-274.2128" x2="-3615.324" y2="-274.2128" gradientTransform="matrix(-0.7098 -0.7098 0.7098 -0.7098 -2115.7207 -2234.6934)">
				<stop  offset="0" style="stop-color:#537983"/>
				<stop  offset="0.593" style="stop-color:#554E56"/>
				<stop  offset="1" style="stop-color:#433F43"/>
			</linearGradient>
			<path class="st8" d="M261.1,520.8l64.2,64.2l-10.6,10.6l-64.2-64.2L261.1,520.8z"/>
		</g>
		<g>
			
				<linearGradient id="SVGID_10_" gradientUnits="userSpaceOnUse" x1="-3693.7969" y1="-305.0313" x2="-3615.2537" y2="-305.0313" gradientTransform="matrix(-0.7098 -0.7098 0.7098 -0.7098 -2115.7207 -2234.6934)">
				<stop  offset="0" style="stop-color:#537983"/>
				<stop  offset="0.593" style="stop-color:#554E56"/>
				<stop  offset="1" style="stop-color:#433F43"/>
			</linearGradient>
			<path class="st9" d="M239.2,542.6l55.7,55.7L284.3,609l-55.7-55.7L239.2,542.6z"/>
		</g>
		<g>
			
				<linearGradient id="SVGID_11_" gradientUnits="userSpaceOnUse" x1="-3486.6155" y1="-511.8771" x2="-3432.2341" y2="-511.8771" gradientTransform="matrix(-0.7098 -0.7098 0.7098 -0.7098 -1882.0695 -2206.7302)">
				<stop  offset="0" style="stop-color:#537983"/>
				<stop  offset="0.593" style="stop-color:#554E56"/>
				<stop  offset="1" style="stop-color:#433F43"/>
			</linearGradient>
			<path class="st10" d="M196.1,587.5l38.6,38.6l-10.6,10.6l-38.6-38.6L196.1,587.5z"/>
		</g>
		<g>
			
				<linearGradient id="SVGID_12_" gradientUnits="userSpaceOnUse" x1="-3681.7517" y1="-335.7794" x2="-3615.2539" y2="-335.7794" gradientTransform="matrix(-0.7098 -0.7098 0.7098 -0.7098 -2115.7207 -2234.6934)">
				<stop  offset="0" style="stop-color:#537983"/>
				<stop  offset="0.593" style="stop-color:#554E56"/>
				<stop  offset="1" style="stop-color:#433F43"/>
			</linearGradient>
			<path class="st11" d="M217.4,564.5l47.2,47.2L254,622.3l-47.2-47.2L217.4,564.5z"/>
		</g>
	</g>
	<g>
		
			<linearGradient id="SVGID_13_" gradientUnits="userSpaceOnUse" x1="-3208.4727" y1="434.613" x2="-3180.8538" y2="434.613" gradientTransform="matrix(-0.3986 -0.9216 0.769 -0.3323 -1376.7916 -2165.281)">
			<stop  offset="0" style="stop-color:#F8F6F7"/>
			<stop  offset="0.1788" style="stop-color:#F8F6F7"/>
			<stop  offset="1" style="stop-color:#E7E6F5"/>
		</linearGradient>
		<path class="st12" d="M216.6,637c2.8,6.5,9.4,9.8,14.8,7.5l6.3-2.7c5.4-2.3,7.5-9.5,4.7-15.9c-2.8-6.5-9.4-9.8-14.8-7.5l-6.3,2.7
			C215.9,623.4,213.8,630.5,216.6,637z"/>
		
			<linearGradient id="SVGID_14_" gradientUnits="userSpaceOnUse" x1="-3208.4727" y1="473.642" x2="-3180.8538" y2="473.642" gradientTransform="matrix(-0.3986 -0.9216 0.769 -0.3323 -1376.7916 -2165.281)">
			<stop  offset="0" style="stop-color:#F8F6F7"/>
			<stop  offset="0.1788" style="stop-color:#F8F6F7"/>
			<stop  offset="1" style="stop-color:#E7E6F5"/>
		</linearGradient>
		<path class="st13" d="M246.6,624c2.8,6.5,9.4,9.8,14.8,7.5l6.3-2.7c5.4-2.3,7.5-9.5,4.7-15.9c-2.8-6.5-9.4-9.8-14.8-7.5l-6.3,2.7
			C246,610.4,243.8,617.5,246.6,624z"/>
		
			<linearGradient id="SVGID_15_" gradientUnits="userSpaceOnUse" x1="-3208.4727" y1="512.7805" x2="-3180.8538" y2="512.7805" gradientTransform="matrix(-0.3986 -0.9216 0.769 -0.3323 -1376.7916 -2165.281)">
			<stop  offset="0" style="stop-color:#F8F6F7"/>
			<stop  offset="0.1788" style="stop-color:#F8F6F7"/>
			<stop  offset="1" style="stop-color:#E7E6F5"/>
		</linearGradient>
		<path class="st14" d="M276.7,611c2.8,6.5,9.4,9.8,14.8,7.5l6.3-2.7c5.4-2.3,7.5-9.5,4.7-15.9c-2.8-6.5-9.4-9.8-14.8-7.5l-6.3,2.7
			C276,597.4,273.9,604.5,276.7,611z"/>
		
			<linearGradient id="SVGID_16_" gradientUnits="userSpaceOnUse" x1="-3208.4727" y1="551.8094" x2="-3180.8538" y2="551.8094" gradientTransform="matrix(-0.3986 -0.9216 0.769 -0.3323 -1376.7916 -2165.281)">
			<stop  offset="0" style="stop-color:#F8F6F7"/>
			<stop  offset="0.1788" style="stop-color:#F8F6F7"/>
			<stop  offset="1" style="stop-color:#E7E6F5"/>
		</linearGradient>
		<path class="st15" d="M306.7,598c2.8,6.5,9.4,9.8,14.8,7.5l6.3-2.7c5.4-2.3,7.5-9.5,4.7-15.9c-2.8-6.5-9.4-9.8-14.8-7.5l-6.3,2.7
			C306,584.4,303.9,591.6,306.7,598L306.7,598z"/>
	</g>
	
		<linearGradient id="SVGID_17_" gradientUnits="userSpaceOnUse" x1="-3123.4485" y1="1658.7529" x2="-2978.0574" y2="1658.7529" gradientTransform="matrix(-0.7098 -0.7098 0.7098 -0.7098 -2750.6768 -727.1112)">
		<stop  offset="0" style="stop-color:#F8F6F7"/>
		<stop  offset="0.1788" style="stop-color:#F8F6F7"/>
		<stop  offset="1" style="stop-color:#E7E6F5"/>
	</linearGradient>
	<path class="st16" d="M582.8,215.2l29.2,29.2c4.1,4.1,4.1,10.8,0,14.9l-21.5,21.5c-4.1,4.1-10.8,4.1-14.9,0l-29.2-29.2
		c-4.1-4.1-4.1-10.8,0-14.9l21.5-21.5C572,211.1,578.6,211.1,582.8,215.2z"/>
	
		<linearGradient id="SVGID_18_" gradientUnits="userSpaceOnUse" x1="-3114.1184" y1="1600.5979" x2="-3036.2563" y2="1600.5979" gradientTransform="matrix(-0.7098 -0.7098 0.7098 -0.7098 -2733.562 -792.6532)">
		<stop  offset="0" style="stop-color:#F8F6F7"/>
		<stop  offset="1" style="stop-color:#D1CEEB"/>
	</linearGradient>
	<path class="st17" d="M546.4,251.5l17.8,17.8c-4.1-4.1-4.1-10.8,0-14.9l21.5-21.5c4.1-4.1,10.8-4.1,14.9,0l-17.8-17.8
		c-4.1-4.1-10.8-4.1-14.9,0l-21.5,21.5C542.3,240.8,542.3,247.4,546.4,251.5z"/>
	<g>
		
			<linearGradient id="SVGID_19_" gradientUnits="userSpaceOnUse" x1="-3484.2446" y1="-145.2667" x2="-3378.2834" y2="-145.2667" gradientTransform="matrix(-0.7098 -0.7098 0.7098 -0.7098 -1832.9608 -2202.782)">
			<stop  offset="0" style="stop-color:#F8F6F7"/>
			<stop  offset="0.1788" style="stop-color:#F8F6F7"/>
			<stop  offset="1" style="stop-color:#E7E6F5"/>
		</linearGradient>
		<path class="st18" d="M490.2,308.2l42,42c4.6,4.6,4.6,12,0,16.6l-1.8,1.8c-4.6,4.6-12,4.6-16.6,0l-42-42c-4.6-4.6-4.6-12,0-16.6
			l1.8-1.8C478.2,303.6,485.7,303.6,490.2,308.2z"/>
		
			<linearGradient id="SVGID_20_" gradientUnits="userSpaceOnUse" x1="-3465.5835" y1="-104.9035" x2="-3359.6226" y2="-104.9035" gradientTransform="matrix(-0.7098 -0.7098 0.7098 -0.7098 -1832.9608 -2202.782)">
			<stop  offset="0" style="stop-color:#F8F6F7"/>
			<stop  offset="0.1788" style="stop-color:#F8F6F7"/>
			<stop  offset="1" style="stop-color:#E7E6F5"/>
		</linearGradient>
		<path class="st19" d="M505.6,266.3l42,42c4.6,4.6,4.6,12,0,16.6l-1.8,1.8c-4.6,4.6-12,4.6-16.6,0l-42-42c-4.6-4.6-4.6-12,0-16.6
			l1.8-1.8C493.6,261.7,501,261.7,505.6,266.3z"/>
	</g>
	
		<linearGradient id="SVGID_21_" gradientUnits="userSpaceOnUse" x1="-3102.1145" y1="1190.7338" x2="-2965.6335" y2="1190.7338" gradientTransform="matrix(-0.7098 -0.7098 0.7098 -0.7098 -2750.6768 -727.1112)">
		<stop  offset="0" style="stop-color:#FEF056"/>
		<stop  offset="0.5213" style="stop-color:#FBC56D"/>
		<stop  offset="1" style="stop-color:#C86D36"/>
	</linearGradient>
	<path class="st20" d="M279,527.4l32.2,32.2c5.1,5.1,3.5,13.7-3.1,16.6l-85.2,37.4c-11.4,5-24.8,2.5-33.6-6.3
		c-10.2-10.2-10.2-26.7,0-36.9l43-43C245.1,514.5,266.1,514.5,279,527.4L279,527.4z"/>
	
		<linearGradient id="SVGID_22_" gradientUnits="userSpaceOnUse" x1="-3161.3914" y1="1132.5081" x2="-3001.3916" y2="1132.5081" gradientTransform="matrix(-0.7098 -0.7098 0.7098 -0.7098 -2733.562 -792.6532)">
		<stop  offset="0" style="stop-color:#FEF056"/>
		<stop  offset="0.5213" style="stop-color:#FBC56D"/>
		<stop  offset="1" style="stop-color:#C86D36"/>
	</linearGradient>
	<path class="st21" d="M189.2,607.2c3.3,3.3,7.1,5.7,11.3,7.1c-2.8-9-0.7-19.1,6.4-26.2l43-43c12.9-12.9,33.8-12.9,46.7,0L279,527.4
		c-12.9-12.9-33.8-12.9-46.7,0l-43,43C179,580.6,179,597.1,189.2,607.2z"/>
	
		<linearGradient id="SVGID_23_" gradientUnits="userSpaceOnUse" x1="-3022.1694" y1="1521.7024" x2="-3015.0344" y2="1521.7024" gradientTransform="matrix(-0.7098 -0.7098 0.7098 -0.7098 -2733.562 -792.6532)">
		<stop  offset="0" style="stop-color:#F3EAE6"/>
		<stop  offset="1" style="stop-color:#CDBFBA"/>
	</linearGradient>
	<path class="st22" d="M496.5,262.9c-2.7,0.2-5.4,1.3-7.5,3.4l-1.8,1.8c-3,3-4,7.2-3.1,11C488.7,274,492.8,268.6,496.5,262.9
		L496.5,262.9z"/>
</g>
<g>
	<g>
		<path class="st23" d="M461.1,171.7L434,130l-41.7-27.1c-6-6-6-15.7,0-21.7l0,0c6-6,15.7-6,21.7,0l27.3,41.5l41.5,27.3
			c6,6,6,15.7,0,21.7l0,0C476.9,177.7,467.1,177.7,461.1,171.7z"/>
		<path class="st23" d="M426,206.7l-27.9-40.9L357.2,138c-6-6-6-15.7,0-21.7l0,0c6-6,15.7-6,21.7,0l28.4,40.4l40.4,28.4
			c6,6,6,15.7,0,21.7l0,0C441.8,212.7,432,212.7,426,206.7z"/>
	</g>
	<path class="st24" d="M44.2,516.8c-71.5-73.1-48.5-188,42.1-209.8c0.8-0.2,1.6-0.1,2.3,0.1c7.1,2.6,46.5,15.6,67.8-5.6
		c11.9-11.9,15.9-29.5,12.4-47.8c-0.2-1,0-2,0.5-2.8c4.7-7.9,4.7-10.1,19.1-25.9c80.8-88.5,245.3,69.9,148.5,152.4
		c-16.1,13.7-15.2,11.7-23.7,17.1c-0.9,0.5-1.9,0.7-2.9,0.5c-18.3-3.5-36,0.4-47.9,12.4c-16.3,16.3-17.6,42.9-5.8,67.5
		c0.4,0.8,0.5,1.8,0.3,2.7C234.8,568.4,117.8,592.1,44.2,516.8z"/>
	<path class="st25" d="M306.9,218.8c36.6,38.9,51.1,96.7,4.2,136.7c-14.6,12.4-15.2,12-21.6,15.8c-2.3,1.3-4.9,1.8-7.5,1.4
		c-17.4-2.7-34,1.3-45.5,12.8c-15.8,15.8-17.5,41.3-6.9,65.3c1.1,2.4,1.3,5.1,0.6,7.7c-21.2,79-115.2,105.3-187,57.1
		c0.4,0.4,0.7,0.7,1.1,1.1c73.6,75.3,190.5,51.7,212.7-39.2c0.2-0.9,0.1-1.9-0.3-2.7c-11.8-24.6-10.5-51.3,5.8-67.5
		c12-12,29.6-15.9,48-12.4c1,0.2,2,0,2.9-0.5c8.5-5.3,7.7-3.4,23.7-17.1C393.9,328.9,360.5,254.2,306.9,218.8z"/>
	<g>
		<path class="st26" d="M96.6,552c-18.6-7.3-36.5-19-52.4-35.3c-57.6-58.9-53.9-144.9-2.9-187.5c0.1,0,0.2,0,0.2,0
			s34,12.8,36.7,55.1s12.5,57.2,38.1,87.5C130.3,488.3,117.4,514.1,96.6,552z"/>
		<path class="st26" d="M123.5,377.7c-0.4,0-0.8,0-1.2,0c-9.3-0.4-16.5-5.7-19.2-10.4c-2.1-3.6-0.9-8.2,2.7-10.3
			c3.6-2.1,8.2-0.9,10.3,2.7c0.5,0.7,3.4,3,7.4,3c5.5,0,11.2-3.8,16.5-11.3c18.5-25.8,34.5-16.1,35.2-15.7c3.5,2.2,4.6,6.8,2.3,10.3
			c-2.1,3.4-6.5,4.5-9.9,2.6c-1.7-0.6-7.4,0.4-15.4,11.5C141.8,374.5,131.1,377.7,123.5,377.7z M167.6,348.7L167.6,348.7
			L167.6,348.7z M167.1,348.5L167.1,348.5L167.1,348.5z M167.1,348.5L167.1,348.5L167.1,348.5z"/>
		<path class="st26" d="M200.3,461.7c-1.3,0-2.6-0.3-3.8-1c-4.7-2.8-10-10-10.4-19.2c-0.4-7.6,2.4-18.9,17.5-29.8
			c12.6-9,11.8-15,11.8-15c-2.2-3.5-1.2-8.1,2.3-10.3c3.5-2.2,8.1-1.2,10.3,2.3c0.4,0.7,10.1,16.7-15.7,35.2
			c-7.4,5.3-11.4,11.1-11.3,16.5c0,4,2.3,6.9,3.1,7.4c3.6,2.1,4.8,6.7,2.7,10.2C205.4,460.4,202.9,461.7,200.3,461.7z"/>
		<path class="st26" d="M187.9,409.3c-1.9,0-3.8-0.7-5.3-2.2l-24.9-24.9c-2.9-2.9-2.9-7.7,0-10.6s7.7-2.9,10.6,0l24.9,24.9
			c2.9,2.9,2.9,7.7,0,10.6C191.7,408.6,189.8,409.3,187.9,409.3z"/>
	</g>
	<path class="st23" d="M63.1,500.5L63.1,500.5c-3.4-3.4-3.7-8.8-0.6-12.5l59.3-72.3c1.5-1.8,4.2-2,5.9-0.3l20.5,20.5
		c1.7,1.7,1.5,4.4-0.3,5.9l-72.3,59.3C71.9,504.2,66.5,503.9,63.1,500.5z"/>
	<path class="st27" d="M453,142.3l-68.1,68l-10.6,10.6l-19.6,19.6L344,251.1l-19.6,19.6l-10.6,10.6L294.1,301l-10.6,10.6l-44.1,44
		c-1.6,1.6-4.1,1.6-5.7,0L208.2,330c-1.6-1.6-1.6-4.1,0-5.7l43.8-43.8l10.6-10.6l19.6-19.6l10.6-10.6l19.6-19.6l10.6-10.6l19.6-19.6
		l10.6-10.6l68.3-68.3c1.6-1.6,4.1-1.6,5.6,0l25.6,25.5C454.5,138.2,454.5,140.7,453,142.3z"/>
	<path class="st25" d="M410.8,190.5l-37.3-37.3c-1.7-1.7-1-5.1,1.5-7.3l71.8-62.8c2.2-1.9,5.1-2.3,6.6-0.8l28.1,28
		c1.5,1.5,1.2,4.3-0.7,6.5L418.1,189C415.9,191.5,412.5,192.2,410.8,190.5z"/>
	<path class="st24" d="M513.3,91.2l-42,53.5c-1.5,1.9-4.6,1.7-6.6-0.4l-21.5-21.4l-23.6-23.5c-2.1-2.1-2.2-5.1-0.4-6.6l53.2-42.3
		c1.6-1.3,4.3-0.9,6.1,0.9L491,63.9l21.3,21.3C514.2,87,514.6,89.6,513.3,91.2z"/>
	<g>
		<polygon class="st23" points="384.9,210.3 374.3,220.9 342.8,189.9 353.4,179.3 		"/>
		<polygon class="st23" points="354.6,240.5 344,251.1 312.6,220.1 323.2,209.5 		"/>
		<polygon class="st23" points="324.4,270.7 313.8,281.3 282.3,250.4 292.9,239.8 		"/>
		<polygon class="st23" points="294.1,301 283.5,311.6 252.1,280.6 262.7,270 		"/>
	</g>
	<path class="st25" d="M513.3,91.2l-42,53.5c-1.5,1.9-4.6,1.7-6.6-0.4l-21.5-21.4l0,0c2.1,2.1,5.2,2.2,6.6,0.4l42-53.5
		c1.3-1.6,0.9-4.1-0.8-5.9l21.3,21.3C514.2,87,514.6,89.6,513.3,91.2z"/>
</g>
</svg>
