<?xml version="1.0" encoding="utf-8"?> <svg version="1.1" id="Capa_1" xmlns="http://www.w3.org/2000/svg" xmlns:xlink="http://www.w3.org/1999/xlink" x="0px" y="0px" viewBox="0 0 695.6 694.1" style="enable-background:new 0 0 695.6 694.1;" xml:space="preserve"> <style type="text/css"> .st0{fill:#43B3AE;} .st1{fill:#9370DB;} .st2{display:none;fill:#43B3AE;} </style> <path class="st0" d="M373.4,330.9c6.6,6.6,16.8,8.1,25.1,3.6l3.3-1.8c9.2-5,20.6-3.4,28,4.1c4.7,4.7,7.2,11.3,6.9,18l-0.4,7.8 c-0.9,17,10.7,32.1,27.4,35.6c5.6,1.2,10.7,3.9,14.7,7.9c11.4,11.4,11.4,29.8,0,41.2l-11.1,11.1c-9.3,9.3-9.3,24.3,0,33.6 s24.3,9.3,33.6,0c11.1-11.1,20.1-24.2,26.4-38.5l17.4-39.2c14.4-32.5,41.7-57.5,75.3-69l29.1-10c8.5-2.9,16.2-7.7,22.5-14.1 c29.2-29.2,29.2-76.7,0-105.9l-60.2-60.2c-29.2-29.2-76.7-29.2-105.9,0c-6.3,6.3-11.1,14-14.1,22.5l-10,29.1 c-11.5,33.6-36.5,60.9-69,75.3l-32.7,14.5C366.2,302.6,362.9,320.4,373.4,330.9z"/> <path class="st0" d="M436.4,358.9c6.3-1.4,13-0.1,18.4,3.6l6.6-6.6c3.3-3.3,8.7-3.3,12,0l33.3,33.3c3.3,3.3,3.3,8.7,0,12l-20.4,20.4 c-1-5.7-3.7-11.1-8.1-15.5c-2-2-4.3-3.7-6.8-5c-2.1-1.1-4.2-2-6.5-2.6c-0.5-0.1-0.9-0.2-1.4-0.3c-11.2-2.3-20.2-10-24.6-19.9 c-2.1-4.8-3.2-10.2-2.8-15.7L436.4,358.9z"/> <path class="st0" d="M505.6,155.1c29.2-29.2,76.7-29.2,105.9,0l28.4,28.4c-29.2-29.2-76.7-29.2-105.9,0c-3.2,3.2-5.9,6.7-8.3,10.4 c-2.4,3.8-4.3,7.8-5.7,12.1l-10,29.1c-11.5,33.6-36.5,60.9-69,75.3L408.2,325c-4.8,2.1-8.3,5.7-10.4,9.9c-8.1,4.1-18,2.5-24.4-4 c-10.5-10.5-7.2-28.3,6.4-34.3l32.7-14.5c32.5-14.4,57.5-41.7,69-75.3l10-29.1c1.5-4.2,3.4-8.3,5.7-12.1 C499.6,161.8,502.4,158.3,505.6,155.1z"/> <circle class="st0" cx="572.6" cy="182.6" r="17.6"/> <ellipse transform="matrix(0.1602 -0.9871 0.9871 0.1602 249.9204 675.9462)" class="st0" cx="522.2" cy="191.1" rx="17.6" ry="17.6"/> <g> <path class="st1" d="M455.7,338.2l33.3,33.3c3.3,3.3,3.3,8.7,0,12L308.8,563.7c-3.3,3.3-8.7,3.3-12,0l-33.3-33.3 c-3.3-3.3-3.3-8.7,0-12l180.2-180.2C447,334.9,452.4,334.9,455.7,338.2L455.7,338.2z"/> <path class="st1" d="M263.5,518.4l180.2-180.2c3.3-3.3,8.7-3.3,12,0l18.4,18.4c-3.3-3.3-8.7-3.3-12,0l-158,157.8l20.7,20.7 c2.2,2.2,3.9,4.8,5,7.6l-21,21c-3.3,3.3-8.7,3.3-12,0l-33.3-33.3C260.2,527.1,260.2,521.7,263.5,518.4L263.5,518.4z"/> </g> <g> <g> <path class="st0" d="M261.1,520.8l64.2,64.2l-10.6,10.6l-64.2-64.2L261.1,520.8z"/> </g> <g> <path class="st0" d="M239.2,542.6l55.7,55.7L284.3,609l-55.7-55.7L239.2,542.6z"/> </g> <g> <path class="st0" d="M196.1,587.5l38.6,38.6l-10.6,10.6l-38.6-38.6L196.1,587.5z"/> </g> <g> <path class="st0" d="M217.4,564.5l47.2,47.2L254,622.3l-47.2-47.2L217.4,564.5z"/> </g> </g> <g> <path class="st0" d="M216.6,637c2.8,6.5,9.4,9.8,14.8,7.5l6.3-2.7c5.4-2.3,7.5-9.5,4.7-15.9c-2.8-6.5-9.4-9.8-14.8-7.5l-6.3,2.7 C215.9,623.4,213.8,630.5,216.6,637z"/> <path class="st0" d="M246.6,624c2.8,6.5,9.4,9.8,14.8,7.5l6.3-2.7c5.4-2.3,7.5-9.5,4.7-15.9c-2.8-6.5-9.4-9.8-14.8-7.5l-6.3,2.7 C246,610.4,243.8,617.5,246.6,624z"/> <path class="st0" d="M276.7,611c2.8,6.5,9.4,9.8,14.8,7.5l6.3-2.7c5.4-2.3,7.5-9.5,4.7-15.9c-2.8-6.5-9.4-9.8-14.8-7.5l-6.3,2.7 C276,597.4,273.9,604.5,276.7,611z"/> <path class="st0" d="M306.7,598c2.8,6.5,9.4,9.8,14.8,7.5l6.3-2.7c5.4-2.3,7.5-9.5,4.7-15.9c-2.8-6.5-9.4-9.8-14.8-7.5l-6.3,2.7 C306,584.4,303.9,591.6,306.7,598L306.7,598z"/> </g> <path class="st1" d="M582.8,215.2l29.2,29.2c4.1,4.1,4.1,10.8,0,14.9l-21.5,21.5c-4.1,4.1-10.8,4.1-14.9,0l-29.2-29.2 c-4.1-4.1-4.1-10.8,0-14.9l21.5-21.5C572,211.1,578.6,211.1,582.8,215.2z"/> <path class="st1" d="M546.4,251.5l17.8,17.8c-4.1-4.1-4.1-10.8,0-14.9l21.5-21.5c4.1-4.1,10.8-4.1,14.9,0l-17.8-17.8 c-4.1-4.1-10.8-4.1-14.9,0l-21.5,21.5C542.3,240.8,542.3,247.4,546.4,251.5z"/> <g> <path class="st1" d="M490.2,308.2l42,42c4.6,4.6,4.6,12,0,16.6l-1.8,1.8c-4.6,4.6-12,4.6-16.6,0l-42-42c-4.6-4.6-4.6-12,0-16.6 l1.8-1.8C478.2,303.6,485.7,303.6,490.2,308.2z"/> <path class="st1" d="M505.6,266.3l42,42c4.6,4.6,4.6,12,0,16.6l-1.8,1.8c-4.6,4.6-12,4.6-16.6,0l-42-42c-4.6-4.6-4.6-12,0-16.6 l1.8-1.8C493.6,261.7,501,261.7,505.6,266.3z"/> </g> <path class="st0" d="M279,527.4l32.2,32.2c5.1,5.1,3.5,13.7-3.1,16.6l-85.2,37.4c-11.4,5-24.8,2.5-33.6-6.3 c-10.2-10.2-10.2-26.7,0-36.9l43-43C245.1,514.5,266.1,514.5,279,527.4L279,527.4z"/> <path class="st0" d="M189.2,607.2c3.3,3.3,7.1,5.7,11.3,7.1c-2.8-9-0.7-19.1,6.4-26.2l43-43c12.9-12.9,33.8-12.9,46.7,0L279,527.4 c-12.9-12.9-33.8-12.9-46.7,0l-43,43C179,580.6,179,597.1,189.2,607.2z"/> <path class="st0" d="M496.5,262.9c-2.7,0.2-5.4,1.3-7.5,3.4l-1.8,1.8c-3,3-4,7.2-3.1,11C488.7,274,492.8,268.6,496.5,262.9 L496.5,262.9z"/> <path class="st2" d="M520.2,151.5v15.1l-105.5,0.2c-24.7,0.1-48.1,8.9-66.6,24.9l11,11c5.8,5.8,9,13.6,9,21.8s-3.2,16-9,21.8 s-13.6,9-21.8,9l0,0c-8.2,0-16-3.2-21.8-9c-12-12-12-31.6,0-43.7l11.2-11.2L315,179.7c-7.9-7.9-18.9-12.5-30.2-12.5h-0.1 c-23.4,0.1-42.5,19.2-42.5,42.7v92.4h-15.1v-92.4c0-31.7,25.8-57.6,57.5-57.7c0.1,0,0.1,0,0.2,0c15.2,0,30.1,6.2,40.8,16.9 l11.9,11.9c21.4-18.8,48.5-29.2,77.2-29.3L520.2,151.5z M337.4,240.3c4.2,0,8.2-1.6,11.2-4.6s4.6-7,4.6-11.2s-1.6-8.2-4.6-11.2 l-11.2-11.2l-11.2,11.2c-6.2,6.2-6.2,16.2,0,22.4C329.2,238.6,333.1,240.3,337.4,240.3L337.4,240.3L337.4,240.3z"/> <path class="st2" d="M348.5,213.3c2.4,2.4,3.9,5.4,4.4,8.7l11.9-11.5c-1.5-2.8-3.3-5.5-5.7-7.8l-11-11l-10.8,10.5L348.5,213.3z"/> <path class="st2" d="M315,179.7l11.7,11.7l10.8-10.5L325.6,169c-2-2-4.1-3.8-6.3-5.4l-11,10.7C310.7,175.9,312.9,177.7,315,179.7 L315,179.7z"/> <path class="st2" d="M234.6,309.8c4.2,0,7.5,3.4,7.5,7.5V348c0,4.2-3.4,7.5-7.5,7.5s-7.5-3.4-7.5-7.5v-30.6 C227.1,313.2,230.5,309.8,234.6,309.8z"/> <path class="st2" d="M234.6,269.1c13.4,0,23.6,11.8,21.8,25l-3.9,28.4c-1,7.4-7.3,12.8-14.8,12.8h-6.2c-7.4,0-13.7-5.5-14.8-12.8 l-3.9-28.4C211,280.9,221.3,269.1,234.6,269.1L234.6,269.1z"/> <path class="st2" d="M212.8,294.2l3.9,28.4c1,7.4,7.3,12.8,14.8,12.8h6.2c1.8,0,3.5-0.3,5.1-0.9c-5.1-1.8-8.9-6.3-9.7-11.9 l-3.9-28.4c-1.4-10.4,4.5-19.8,13.6-23.5c-2.5-1-5.3-1.6-8.2-1.6C221.3,269.1,211,280.9,212.8,294.2z"/> <g> <path class="st0" d="M461.1,171.7L434,130l-41.7-27.1c-6-6-6-15.7,0-21.7l0,0c6-6,15.7-6,21.7,0l27.3,41.5l41.5,27.3 c6,6,6,15.7,0,21.7l0,0C476.9,177.7,467.1,177.7,461.1,171.7z"/> <path class="st0" d="M426,206.7l-27.9-40.9L357.2,138c-6-6-6-15.7,0-21.7l0,0c6-6,15.7-6,21.7,0l28.4,40.4l40.4,28.4 c6,6,6,15.7,0,21.7l0,0C441.8,212.7,432,212.7,426,206.7z"/> </g> <path class="st0" d="M44.2,516.8c-71.5-73.1-48.5-188,42.1-209.8c0.8-0.2,1.6-0.1,2.3,0.1c7.1,2.6,46.5,15.6,67.8-5.6 c11.9-11.9,15.9-29.5,12.4-47.8c-0.2-1,0-2,0.5-2.8c4.7-7.9,4.7-10.1,19.1-25.9c80.8-88.5,245.3,69.9,148.5,152.4 c-16.1,13.7-15.2,11.7-23.7,17.1c-0.9,0.5-1.9,0.7-2.9,0.5c-18.3-3.5-36,0.4-47.9,12.4c-16.3,16.3-17.6,42.9-5.8,67.5 c0.4,0.8,0.5,1.8,0.3,2.7C234.8,568.4,117.8,592.1,44.2,516.8z"/> <path class="st0" d="M306.9,218.8c36.6,38.9,51.1,96.7,4.2,136.7c-14.6,12.4-15.2,12-21.6,15.8c-2.3,1.3-4.9,1.8-7.5,1.4 c-17.4-2.7-34,1.3-45.5,12.8c-15.8,15.8-17.5,41.3-6.9,65.3c1.1,2.4,1.3,5.1,0.6,7.7c-21.2,79-115.2,105.3-187,57.1 c0.4,0.4,0.7,0.7,1.1,1.1c73.6,75.3,190.5,51.7,212.7-39.2c0.2-0.9,0.1-1.9-0.3-2.7c-11.8-24.6-10.5-51.3,5.8-67.5 c12-12,29.6-15.9,48-12.4c1,0.2,2,0,2.9-0.5c8.5-5.3,7.7-3.4,23.7-17.1C393.9,328.9,360.5,254.2,306.9,218.8z"/> <path class="st0" d="M96.6,552c-18.6-7.3-36.5-19-52.4-35.3c-57.6-58.9-53.9-144.9-2.9-187.5c0.1,0,0.2,0,0.2,0s34,12.8,36.7,55.1 s12.5,57.2,38.1,87.5C130.3,488.3,117.4,514.1,96.6,552z"/> <path class="st1" d="M123.5,377.7c-0.4,0-0.8,0-1.2,0c-9.3-0.4-16.5-5.7-19.2-10.4c-2.1-3.6-0.9-8.2,2.7-10.3 c3.6-2.1,8.2-0.9,10.3,2.7c0.5,0.7,3.4,3,7.4,3c5.5,0,11.2-3.8,16.5-11.3c18.5-25.8,34.5-16.1,35.2-15.7c3.5,2.2,4.6,6.8,2.3,10.3 c-2.1,3.4-6.5,4.5-9.9,2.6c-1.7-0.6-7.4,0.4-15.4,11.5C141.8,374.5,131.1,377.7,123.5,377.7z M167.6,348.7L167.6,348.7L167.6,348.7z M167.1,348.5L167.1,348.5L167.1,348.5z M167.1,348.5L167.1,348.5L167.1,348.5z"/> <path class="st1" d="M200.3,461.7c-1.3,0-2.6-0.3-3.8-1c-4.7-2.8-10-10-10.4-19.2c-0.4-7.6,2.4-18.9,17.5-29.8 c12.6-9,11.8-15,11.8-15c-2.2-3.5-1.2-8.1,2.3-10.3c3.5-2.2,8.1-1.2,10.3,2.3c0.4,0.7,10.1,16.7-15.7,35.2 c-7.4,5.3-11.4,11.1-11.3,16.5c0,4,2.3,6.9,3.1,7.4c3.6,2.1,4.8,6.7,2.7,10.2C205.4,460.4,202.9,461.7,200.3,461.7z"/> <path class="st1" d="M187.9,409.3c-1.9,0-3.8-0.7-5.3-2.2l-24.9-24.9c-2.9-2.9-2.9-7.7,0-10.6s7.7-2.9,10.6,0l24.9,24.9 c2.9,2.9,2.9,7.7,0,10.6C191.7,408.6,189.8,409.3,187.9,409.3z"/> <path class="st1" d="M63.1,500.5L63.1,500.5c-3.4-3.4-3.7-8.8-0.6-12.5l59.3-72.3c1.5-1.8,4.2-2,5.9-0.3l20.5,20.5 c1.7,1.7,1.5,4.4-0.3,5.9l-72.3,59.3C71.9,504.2,66.5,503.9,63.1,500.5z"/> <path class="st1" d="M453,142.3l-68.1,68l-10.6,10.6l-19.6,19.6L344,251.1l-19.6,19.6l-10.6,10.6L294.1,301l-10.6,10.6l-44.1,44 c-1.6,1.6-4.1,1.6-5.7,0L208.2,330c-1.6-1.6-1.6-4.1,0-5.7l43.8-43.8l10.6-10.6l19.6-19.6l10.6-10.6l19.6-19.6l10.6-10.6l19.6-19.6 l10.6-10.6l68.3-68.3c1.6-1.6,4.1-1.6,5.6,0l25.6,25.5C454.5,138.2,454.5,140.7,453,142.3z"/> <path class="st0" d="M410.8,190.5l-37.3-37.3c-1.7-1.7-1-5.1,1.5-7.3l71.8-62.8c2.2-1.9,5.1-2.3,6.6-0.8l28.1,28 c1.5,1.5,1.2,4.3-0.7,6.5L418.1,189C415.9,191.5,412.5,192.2,410.8,190.5z"/> <path class="st0" d="M513.3,91.2l-42,53.5c-1.5,1.9-4.6,1.7-6.6-0.4l-21.5-21.4l-23.6-23.5c-2.1-2.1-2.2-5.1-0.4-6.6l53.2-42.3 c1.6-1.3,4.3-0.9,6.1,0.9L491,63.9l21.3,21.3C514.2,87,514.6,89.6,513.3,91.2z"/> <g> <polygon class="st0" points="384.9,210.3 374.3,220.9 342.8,189.9 353.4,179.3 	"/> <polygon class="st0" points="354.6,240.5 344,251.1 312.6,220.1 323.2,209.5 	"/> <polygon class="st0" points="324.4,270.7 313.8,281.3 282.3,250.4 292.9,239.8 	"/> <polygon class="st0" points="294.1,301 283.5,311.6 252.1,280.6 262.7,270 	"/> </g> <path class="st0" d="M513.3,91.2l-42,53.5c-1.5,1.9-4.6,1.7-6.6-0.4l-21.5-21.4l0,0c2.1,2.1,5.2,2.2,6.6,0.4l42-53.5 c1.3-1.6,0.9-4.1-0.8-5.9l21.3,21.3C514.2,87,514.6,89.6,513.3,91.2z"/> </svg>