<svg height="512pt" viewBox="0 0 512 512.001" width="512pt" xmlns="http://www.w3.org/2000/svg"><path fill="rgba(255, 255, 255, 0.7)" d="m400.601562 94.265625h33.199219v68.535156h30v-68.535156h33.199219c8.285156 0 15-6.714844 15-15 0-8.28125-6.714844-15-15-15h-33.199219v-1.066406c0-8.285157-6.714843-15-15-15-8.285156 0-15 6.714843-15 15v1.066406h-33.199219c-8.285156 0-15 6.714844-15 15s6.714844 15 15 15zm0 0"/><path fill="rgba(255, 255, 255, 0.7)" d="m15 46.066406h33.199219v116.734375h30v-116.734375h33.203125c8.28125 0 15-6.714844 15-15s-6.71875-15-15-15h-33.203125v-1.066406c0-8.285156-6.714844-15-15-15-8.28125 0-15 6.714844-15 15v1.066406h-33.199219c-8.285156 0-15 6.714844-15 15s6.714844 15 15 15zm0 0"/><path fill="rgba(255, 255, 255, 0.7)" d="m78.199219 442.585938v-29.117188h-30v29.117188l-43.804688 43.808593c-5.859375 5.859375-5.859375 15.355469 0 21.210938 5.855469 5.859375 15.355469 5.859375 21.214844 0l37.589844-37.59375 37.59375 37.59375c2.929687 2.929687 6.765625 4.394531 10.605469 4.394531 3.839843 0 7.679687-1.464844 10.605468-4.394531 5.859375-5.855469 5.859375-15.355469 0-21.210938zm0 0"/><path fill="rgba(255, 255, 255, 0.7)" d="m15 383.46875h68.121094c-.429688-4.9375-.652344-9.949219-.652344-15 0-26.019531 5.761719-50.730469 16.0625-72.898438v-102.769531h-83.53125c-8.28125 0-15 6.71875-15 15v160.667969c0 8.28125 6.71875 15 15 15zm0 0"/><path fill="rgba(255, 255, 255, 0.7)" d="m241 195.578125v-35.976563c0-8.28125-6.71875-15-15-15h-82.46875c-8.28125 0-15 6.71875-15 15v91.238282c28.539062-30.910156 68.148438-51.460938 112.46875-55.261719zm0 0"/><path fill="rgba(255, 255, 255, 0.7)" d="m463.800781 442.585938v-93.386719h-30v93.386719l-43.804687 43.808593c-5.859375 5.859375-5.859375 15.355469 0 21.210938 2.925781 2.929687 6.765625 4.394531 10.605468 4.394531 3.835938 0 7.675782-1.464844 10.605469-4.394531l37.59375-37.589844 37.59375 37.589844c5.855469 5.859375 15.355469 5.859375 21.210938 0 5.859375-5.855469 5.859375-15.351563 0-21.210938zm0 0"/><path fill="rgba(255, 255, 255, 0.7)" d="m497 192.800781h-83.53125v102.769531c3.53125 7.601563 6.53125 15.488282 8.941406 23.628907h74.589844c8.28125 0 15-6.71875 15-15v-96.398438c0-8.28125-6.71875-15-15-15zm0 0"/><path fill="rgba(255, 255, 255, 0.7)" d="m383.46875 250.839844v-91.238282c0-8.28125-6.71875-15-15-15h-82.46875c-8.28125 0-15 6.71875-15 15v35.976563c44.320312 3.800781 83.929688 24.351563 112.46875 55.261719zm0 0"/><path fill="rgba(255, 255, 255, 0.7)" d="m256 224.933594c-79.144531 0-143.53125 64.386718-143.53125 143.535156 0 79.144531 64.386719 143.53125 143.53125 143.53125s143.535156-64.390625 143.535156-143.53125c0-79.144531-64.390625-143.535156-143.535156-143.535156zm32.132812 110.332031h-64.265624c-8.285157 0-15-6.714844-15-15 0-8.28125 6.714843-15 15-15h64.265624c8.285157 0 15 6.71875 15 15 0 8.285156-6.714843 15-15 15zm0 0"/></svg>