<svg id="Capa_1" enable-background="new 0 0 512.002 512.002" height="512" viewBox="0 0 512.002 512.002" width="512" xmlns="http://www.w3.org/2000/svg"><path fill="#43b3ae" d="m435.754 73.485c-6.36-5.307-15.818-4.455-21.128 1.905l-12.927 15.49c-6.199-2.924-13.808-1.299-18.205 4.329l-21.55 27.583c-3.934 5.034-4.13 11.786-1.026 16.954l-25.781 30.893 6.116 39.493 42.688-51.152c2.556 1.833 5.608 2.821 8.734 2.821.607 0 1.219-.037 1.828-.111 3.948-.485 7.543-2.519 9.992-5.653l21.551-27.583c2.449-3.135 3.553-7.114 3.068-11.063-.374-3.042-1.674-5.868-3.682-8.128l12.226-14.65c5.309-6.36 4.457-15.819-1.904-21.128z"/><path fill="#43b3ae" d="m356.719 309.998-15.466-99.865-83.341 99.865z"/><path fill="#43b3ae" d="m361.365 339.998h-271.018l-19.312 124.698c-.67 4.328.584 8.732 3.434 12.058 2.85 3.324 7.011 5.238 11.39 5.238h10.294l-2.09 12.542c-1.361 8.172 4.159 15.9 12.33 17.262.835.14 1.664.206 2.483.206 7.2 0 13.556-5.2 14.778-12.536l2.911-17.474h199.581l2.911 17.473c1.223 7.338 7.577 12.537 14.777 12.537.818 0 1.649-.067 2.483-.206 8.172-1.361 13.692-9.089 12.331-17.261l-2.09-12.543h9.294c4.379 0 8.54-1.914 11.39-5.238 2.85-3.325 4.104-7.729 3.434-12.058z"/><path fill="#43b3ae" d="m295.855 0h-139.997c-7.398 0-13.692 5.394-14.823 12.704l-46.042 297.294h123.844l26.464-31.711c-2.078 1.088-4.437 1.712-6.946 1.712h-23.999c-8.284 0-15-6.716-15-15s6.716-15 15-15h23.999c8.284 0 15 6.716 15 15 0 1.545-.235 3.035-.668 4.438l82.45-98.797-24.459-157.936c-1.132-7.31-7.426-12.704-14.823-12.704zm-57.499 220h-23.999c-8.284 0-15-6.716-15-15s6.716-15 15-15h23.999c8.284 0 15 6.716 15 15s-6.716 15-15 15zm0-59.999h-23.999c-8.284 0-15-6.716-15-15s6.716-15 15-15h23.999c8.284 0 15 6.716 15 15s-6.716 15-15 15zm0-59.999h-23.999c-8.284 0-15-6.716-15-15s6.716-15 15-15h23.999c8.284 0 15 6.716 15 15s-6.716 15-15 15z"/></svg>