<?xml version="1.0" encoding="utf-8"?> <svg version="1.1" id="svg1437" xmlns:svg="http://www.w3.org/2000/svg" xmlns="http://www.w3.org/2000/svg" xmlns:xlink="http://www.w3.org/1999/xlink" x="0px" y="0px" viewBox="0 0 68.5 65" style="enable-background:new 0 0 68.5 65;" xml:space="preserve"> <style type="text/css"> .st0{fill:#FFFFFF;} .st1{opacity:0.9;fill-rule:evenodd;clip-rule:evenodd;fill:#FFFFFF;enable-background:new    ;} .st2{fill:#FFFFFF;stroke:#FFFFFF;stroke-width:1.5;} .st3{fill:#FFFDFD;stroke:#FFFFFF;stroke-width:1.5;} .st4{fill:none;} </style> <path id="text13052" class="st0" d="M40.2,6.5V6.3C41.6,6,42.7,5.6,43.4,5c0.5-0.4,0.8-1,0.8-1.6c0-0.5-0.1-0.8-0.4-1.1 c-0.3-0.3-0.5-0.6-1-0.8C42.1,1.3,41,1.2,40.5,2c0.2,0.3,0.4,0.5,0.3,1c0,0.5-0.8,0.7-1,0.7c-0.2,0-0.9-0.3-0.9-0.9 c0-0.4,0.2-0.9,0.5-1c0.5-0.5,0.5-0.6,1-0.9c0.9-0.5,1.4-0.4,2-0.4c0.7,0,2,0.6,2.5,1c0.4,0.4,0.6,0.9,0.6,1.6 c0,0.5-0.2,1.1-0.6,1.6c-0.4,0.5-1.1,0.9-2.1,1.3C43.6,6.2,44,6.6,44.3,7c0.3,0.5,0.5,1,0.5,1.7c0,0.7-0.2,1.5-0.6,2.2 c-0.4,0.7-1,1.3-1.7,1.7c-0.7,0.4-1.6,0.3-2.4,0.3c-0.7,0-1.9-0.4-2.5-1c-0.6-0.6-0.9-1.2-0.9-1.8c0.1-0.9,0.7-1.1,1.2-1.1 c0.5,0,0.9,0.1,1,0.7c0,0.5,0,0.8-0.7,1.4c0.4,0.7,1.1,1.3,2.1,1.3c0.6,0,2.2-0.3,2.6-0.9c0.3-0.6,0.5-1.3,0.5-2 C43.3,9,43.2,8.5,43,8c-0.2-0.4-0.6-0.8-1.1-1.1C41.4,6.7,40.8,6.6,40.2,6.5"/> <g id="g1637" transform="translate(-18.70345,-987.0091)"> <path id="path15685" class="st1" d="M55.8,1050.8c3.4-1.8,5.2-5.1,4.1-7.6c-1.2-2.6-5.3-3.4-9.1-1.7c-3.8,1.7-6,5.3-4.8,7.9 c1.2,2.6,5.3,3.4,9.1,1.7C55.3,1051,55.5,1050.9,55.8,1050.8z"/> <path id="path15687" class="st2" d="M59.4,1044.4v-33.6"/> </g> <path id="path15691" class="st1" d="M10.1,63.8c3.4-1.8,5.2-5.1,4.1-7.6c-1.2-2.6-5.3-3.4-9.1-1.7c-3.8,1.7-6,5.3-4.8,7.9 c1.2,2.6,5.3,3.4,9.1,1.7C9.7,64,9.9,63.9,10.1,63.8z"/> <path id="path15693" class="st2" d="M13.8,57.4V23.8"/> <rect id="rect15695" x="13" y="22.4" class="st1" width="55.4" height="4.5"/> <g id="g1645" transform="translate(8.308908,-987.0091)"> <path id="path1647" class="st1" d="M55.8,1050.8c3.4-1.8,5.2-5.1,4.1-7.6c-1.2-2.6-5.3-3.4-9.1-1.7c-3.8,1.7-6,5.3-4.8,7.9 c1.2,2.6,5.3,3.4,9.1,1.7C55.3,1051,55.5,1050.9,55.8,1050.8z"/> <path id="path1649" class="st3" d="M59.4,1044.4v-33.6"/> </g> <path class="st4" d=""/> </svg>