<svg height="512pt" viewBox="0 -36 512 512" width="512pt" xmlns="http://www.w3.org/2000/svg"><path fill="rgba(0, 0, 0, 0.6)" d="m496.792969 0h-71.714844v217.128906c0 8.398438-6.808594 15.207032-15.207031 15.207032h-18.269532v207.824218h105.191407c8.398437 0 15.207031-6.808594 15.207031-15.203125v-409.75c0-8.398437-6.808594-15.207031-15.207031-15.207031zm0 0"/><path fill="rgba(0, 0, 0, 0.6)" d="m342.921875 232.335938c-8.398437 0-15.207031-6.808594-15.207031-15.207032v-217.128906h-23.035156v217.128906c0 8.398438-6.808594 15.207032-15.207032 15.207032h-18.265625v207.824218h89.984375v-207.824218zm0 0"/><path fill="rgba(0, 0, 0, 0.6)" d="m222.527344 232.335938c-8.398438 0-15.207032-6.808594-15.207032-15.207032v-217.128906h-23.035156v217.128906c0 8.398438-6.808594 15.207032-15.207031 15.207032h-18.269531v207.824218h89.984375v-207.824218zm0 0"/><path fill="rgba(0, 0, 0, 0.6)" d="m102.128906 232.335938c-8.398437 0-15.207031-6.808594-15.207031-15.207032v-217.128906h-71.714844c-8.398437 0-15.207031 6.808594-15.207031 15.207031v409.75c0 8.394531 6.808594 15.203125 15.207031 15.203125h105.191407v-207.824218zm0 0"/><path fill="rgba(0, 0, 0, 0.6)" d="m358.128906 0h36.535156v201.921875h-36.535156zm0 0"/><path fill="rgba(0, 0, 0, 0.6)" d="m237.730469 0h36.539062v201.921875h-36.539062zm0 0"/><path fill="rgba(0, 0, 0, 0.6)" d="m117.335938 0h36.535156v201.921875h-36.535156zm0 0"/></svg>