<?xml version="1.0" encoding="utf-8"?> <svg version="1.1" id="Layer_1" xmlns="http://www.w3.org/2000/svg" xmlns:xlink="http://www.w3.org/1999/xlink" x="0px" y="0px" viewBox="0 0 512 512" style="enable-background:new 0 0 512 512;" xml:space="preserve"><g><path fill="rgba(0, 0, 0, 0.6)" d="M6.7,144.2L157.4,295c32.7,32.7,82.5,37,119.6,14.2l146.2,146.2c-3.9,15,0,31.7,11.7,43.4c17.6,17.6,46.2,17.6,63.8,0 c17.6-17.6,17.6-46.2,0-63.8c-11.8-11.8-28.4-15.7-43.4-11.7L309.2,277c22.9-37.5,18.2-87.2-14.2-119.6L144.2,6.7 c-8.9-8.9-23.3-8.9-32.2,0c-8.9,8.9-8.9,23.3,0,32.2l150.8,150.8c20.2,20.2,20.2,53.1,0,73.3c-20.2,20.2-53,20.2-73.3,0 L38.8,112.1c-8.9-8.9-23.3-8.9-32.2,0C-2.2,121-2.2,135.4,6.7,144.2z"/></g></svg>